<?xml version="1.0" encoding="UTF-8" standalone="no"?>
<!DOCTYPE svg PUBLIC "-//W3C//DTD SVG 1.1//EN" "http://www.w3.org/Graphics/SVG/1.1/DTD/svg11.dtd">
<svg width="100%" height="100%" viewBox="0 0 584 100" version="1.1" xmlns="http://www.w3.org/2000/svg" xmlns:xlink="http://www.w3.org/1999/xlink" xml:space="preserve" xmlns:serif="http://www.serif.com/" style="fill-rule:evenodd;clip-rule:evenodd;stroke-linejoin:round;stroke-miterlimit:2;">
    <g transform="matrix(1.16694,0,0,1.16694,295.457,3.48005)">
        <g transform="matrix(1,0,0,1,0.109126,-0.562769)">
            <path d="M70.19,18.69L41.79,2.69C39.765,1.59 37.315,1.59 35.29,2.69L6.79,18.69C4.698,19.869 3.397,22.089 3.39,24.49L3.39,56.39C3.371,58.798 4.68,61.03 6.79,62.19L35.19,78.09C36.186,78.689 37.328,79.001 38.49,78.99C39.65,78.987 40.789,78.677 41.79,78.09L70.19,62.19C72.282,61.011 73.583,58.791 73.59,56.39L73.59,24.49C73.65,22.072 72.329,19.819 70.19,18.69Z" style="fill:url(#_Linear1);fill-rule:nonzero;"/>
        </g>
        <g transform="matrix(1,0,0,1,3.49913,1.30723)">
            <path d="M15.3,46.92L13.6,47.92C12.768,48.381 12.25,49.26 12.25,50.212C12.25,50.671 12.371,51.122 12.6,51.52C13.054,52.369 13.937,52.907 14.9,52.92C15.35,52.916 15.794,52.814 16.2,52.62L17.9,51.62C18.732,51.159 19.25,50.28 19.25,49.328C19.25,48.869 19.129,48.418 18.9,48.02C18.471,47.137 17.571,46.574 16.589,46.574C16.136,46.574 15.692,46.693 15.3,46.92ZM25.7,41.02L22.2,43.02C21.368,43.481 20.85,44.36 20.85,45.312C20.85,45.771 20.971,46.222 21.2,46.62C21.654,47.469 22.537,48.007 23.5,48.02C23.95,48.016 24.394,47.914 24.8,47.72L28.3,45.72C29.132,45.259 29.65,44.38 29.65,43.428C29.65,42.969 29.529,42.518 29.3,42.12C28.871,41.237 27.971,40.674 26.989,40.674C26.536,40.674 26.092,40.793 25.7,41.02ZM39.8,36.13C39.515,35.557 39.01,35.124 38.4,34.93L38.4,14.82C38.4,14.817 38.4,14.813 38.4,14.81C38.4,13.334 37.186,12.12 35.71,12.12C35.707,12.12 35.703,12.12 35.7,12.12C34.271,12.125 33.098,13.301 33.098,14.73C33.098,14.76 33.099,14.79 33.1,14.82L33.1,35.02C32.49,35.214 31.985,35.647 31.7,36.22C31.32,36.931 31.283,37.778 31.6,38.52C31.283,39.262 31.32,40.109 31.7,40.82C31.985,41.393 32.49,41.826 33.1,42.02L33.1,62.22C33.1,63.701 34.319,64.92 35.8,64.92C37.281,64.92 38.5,63.701 38.5,62.22L38.5,41.92C39.11,41.726 39.615,41.293 39.9,40.72C40.28,40.009 40.317,39.162 40,38.42C40.231,37.66 40.16,36.839 39.8,36.13ZM46.61,29.22L43.11,31.22C42.278,31.681 41.76,32.56 41.76,33.512C41.76,33.971 41.881,34.422 42.11,34.82C42.564,35.669 43.447,36.207 44.41,36.22C44.86,36.216 45.304,36.114 45.71,35.92L49.21,33.92C50.042,33.459 50.56,32.58 50.56,31.628C50.56,31.169 50.439,30.718 50.21,30.32C49.781,29.437 48.881,28.874 47.899,28.874C47.446,28.874 47.002,28.993 46.61,29.22ZM54.9,30.22C55.35,30.216 55.794,30.114 56.2,29.92L57.9,28.92C58.734,28.454 59.253,27.57 59.253,26.614C59.253,25.164 58.061,23.972 56.611,23.972C56.151,23.972 55.699,24.092 55.3,24.32L53.6,25.32C52.768,25.781 52.25,26.66 52.25,27.612C52.25,28.071 52.371,28.522 52.6,28.92C53.066,29.745 53.953,30.246 54.9,30.22ZM57.9,47.92L56.2,46.92C55.806,46.7 55.362,46.584 54.911,46.584C53.462,46.584 52.269,47.777 52.269,49.226C52.269,50.173 52.778,51.05 53.6,51.52L55.3,52.52C55.706,52.714 56.15,52.816 56.6,52.82C57.563,52.807 58.446,52.269 58.9,51.42C59.138,51.031 59.264,50.584 59.264,50.129C59.264,49.195 58.735,48.338 57.9,47.92ZM49.2,43.02L45.7,41.02C45.301,40.792 44.849,40.672 44.389,40.672C42.939,40.672 41.747,41.864 41.747,43.314C41.747,44.27 42.266,45.154 43.1,45.62L46.6,47.62C47.006,47.814 47.45,47.916 47.9,47.92C48.863,47.907 49.746,47.369 50.2,46.52C50.444,46.13 50.573,45.68 50.573,45.221C50.573,44.287 50.039,43.431 49.2,43.02ZM22.2,33.82L25.7,35.82C26.106,36.014 26.55,36.116 27,36.12C27.963,36.107 28.846,35.569 29.3,34.72C29.529,34.322 29.65,33.871 29.65,33.412C29.65,32.46 29.132,31.581 28.3,31.12L24.8,29.12C24.402,28.891 23.951,28.77 23.492,28.77C22.54,28.77 21.661,29.288 21.2,30.12C20.509,31.417 20.95,33.048 22.2,33.82ZM17.9,25.32L16.2,24.32C15.801,24.092 15.349,23.972 14.889,23.972C13.439,23.972 12.247,25.164 12.247,26.614C12.247,27.57 12.766,28.454 13.6,28.92L15.3,29.92C15.706,30.114 16.15,30.216 16.6,30.22C17.563,30.207 18.446,29.669 18.9,28.82C19.123,28.435 19.24,27.998 19.24,27.553C19.24,26.619 18.724,25.759 17.9,25.32Z" style="fill:rgb(32,19,58);fill-rule:nonzero;"/>
        </g>
    </g>
    <g id="simple" transform="matrix(4.42764,0,0,4.02146,174.737,1.74048)">
        <path d="M23.451,3.672C23.557,3.777 23.65,3.894 23.728,4.02C23.906,4.313 24,4.648 24,4.99L24,14.594C24,14.936 23.905,15.273 23.726,15.565C23.622,15.732 23.493,15.882 23.343,16.009C23.008,16.295 22.583,16.452 22.142,16.452L11.727,16.452C10.571,18.481 8.726,20.03 6.527,20.817L6.391,20.866L6.256,20.814C4.438,20.115 2.87,18.887 1.757,17.288C0.61,15.651 -0.004,13.7 0,11.701C-0,10.995 0.076,10.291 0.227,9.601L0.279,9.364L0.515,9.306C0.57,9.293 0.624,9.278 0.677,9.264C2.796,8.707 4.722,7.578 6.245,6.002L6.285,5.959L6.517,5.72L6.517,4.99C6.517,4.647 6.612,4.31 6.791,4.018C6.869,3.892 6.962,3.776 7.069,3.672C7.387,3.353 7.812,3.161 8.262,3.135L22.256,3.135C22.707,3.161 23.132,3.353 23.451,3.672ZM8.376,4.018C8.343,4.018 8.31,4.019 8.278,4.022L8.136,4.022L8.159,4.043L14.974,10.072C15.138,10.217 15.386,10.217 15.55,10.072L22.365,4.043L22.388,4.022L22.242,4.022C22.209,4.019 22.177,4.018 22.144,4.018L8.376,4.018ZM7.478,4.623C7.43,4.739 7.405,4.864 7.406,4.99L7.406,6.576C8.816,7.848 10.509,8.767 12.344,9.257L12.458,9.286L12.515,9.301L12.752,9.359L12.803,9.598C12.843,9.785 12.876,9.974 12.903,10.163L13.32,9.794L7.478,4.623ZM2.329,16.719C3.33,18.201 4.748,19.354 6.403,20.031C10.457,18.504 12.861,14.256 12.083,9.995C9.992,9.428 8.08,8.338 6.528,6.826C4.969,8.344 3.046,9.438 0.945,10.003C0.838,10.563 0.784,11.131 0.784,11.701C0.791,13.489 1.329,15.236 2.329,16.719ZM13.013,11.621C13.013,12.98 12.728,14.323 12.176,15.565L22.388,15.565L22.36,15.54L16.534,10.387L15.549,11.257C15.386,11.403 15.137,11.403 14.974,11.257L13.989,10.387L13.005,11.257C13.01,11.379 13.013,11.499 13.013,11.621ZM23.042,14.96C23.09,14.844 23.115,14.72 23.114,14.594L23.115,4.991C23.115,4.866 23.091,4.743 23.044,4.627L17.204,9.795L23.042,14.96ZM6.609,8.206C7.841,9.378 9.346,10.225 10.988,10.67C11.062,11.074 11.101,11.483 11.106,11.893L11.106,11.975C11.104,13.679 10.5,15.328 9.401,16.63L9.394,16.638C8.598,17.578 7.576,18.299 6.424,18.733C3.709,17.624 1.92,14.974 1.909,12.041C1.909,11.583 1.952,11.126 2.038,10.676C3.726,10.222 5.271,9.344 6.524,8.125L6.608,8.206L6.609,8.206ZM3.432,13.259L6.184,16.011L6.185,16.011L10.016,12.18L9.169,11.334L6.186,14.318L4.278,12.411L3.432,13.259Z" style="fill:rgb(234,49,159);fill-rule:nonzero;"/>
    </g>
    <defs>
        <linearGradient id="_Linear1" x1="0" y1="0" x2="1" y2="0" gradientUnits="userSpaceOnUse" gradientTransform="matrix(70.21,0,0,70.21,3.39,40.43)"><stop offset="0" style="stop-color:rgb(144,89,255);stop-opacity:1"/><stop offset="1" style="stop-color:rgb(247,112,255);stop-opacity:1"/></linearGradient>
    </defs>
</svg>
