<?xml version="1.0" encoding="UTF-8" standalone="no"?>
<!DOCTYPE svg PUBLIC "-//W3C//DTD SVG 1.1//EN" "http://www.w3.org/Graphics/SVG/1.1/DTD/svg11.dtd">
<svg width="100%" height="100%" viewBox="0 0 584 100" version="1.1" xmlns="http://www.w3.org/2000/svg" xmlns:xlink="http://www.w3.org/1999/xlink" xml:space="preserve" xmlns:serif="http://www.serif.com/" style="fill-rule:evenodd;clip-rule:evenodd;stroke-linejoin:round;stroke-miterlimit:2;">
    <g id="bitwards" transform="matrix(3.04167,0,0,3.04167,299,14.9999)">
        <path d="M3.75,0C1.693,0 -0,1.693 0,3.75L0,20.25C0,22.307 1.693,24 3.75,24L20.25,24C22.307,24 24,22.307 24,20.25L24,3.75C24,1.693 22.307,0 20.25,0L3.75,0ZM5.11,2.92L18.91,2.92C19.118,2.92 19.298,2.996 19.45,3.148C19.597,3.289 19.679,3.484 19.677,3.687L19.677,12.887C19.677,13.574 19.543,14.254 19.276,14.929C19.027,15.57 18.692,16.175 18.281,16.726C17.859,17.278 17.386,17.79 16.868,18.254C16.321,18.749 15.816,19.16 15.353,19.488C14.889,19.815 14.406,20.124 13.903,20.416C13.4,20.707 13.043,20.905 12.831,21.009C12.619,21.113 12.45,21.193 12.321,21.249C12.225,21.297 12.118,21.321 12.011,21.32C11.903,21.321 11.796,21.296 11.699,21.248C11.527,21.171 11.357,21.091 11.189,21.008C10.826,20.821 10.469,20.624 10.118,20.416C9.621,20.129 9.137,19.819 8.668,19.488C8.139,19.107 7.633,18.695 7.153,18.254C6.635,17.79 6.161,17.278 5.739,16.726C5.328,16.175 4.994,15.57 4.745,14.929C4.483,14.28 4.347,13.587 4.344,12.887L4.344,3.687C4.344,3.479 4.42,3.3 4.571,3.147C4.712,3 4.907,2.918 5.111,2.92L5.11,2.92ZM12.01,5.22L12.01,18.84C12.96,18.338 13.811,17.79 14.562,17.2C16.439,15.73 17.377,14.293 17.377,12.887L17.377,5.22L12.01,5.22Z" style="fill:rgb(23,93,220);fill-rule:nonzero;"/>
    </g>
    <g id="_1pass" serif:id="1pass" transform="matrix(2.91667,0,0,2.91838,216,16.4794)">
        <path d="M12,0.007C5.373,0.007 0,5.376 0,11.999C0,18.623 5.373,23.993 12,23.993C18.627,23.993 24,18.623 24,12C24,5.376 18.627,0.007 12,0.007ZM11.105,4.864L12.893,4.864C13.377,4.864 13.622,4.866 13.807,4.96C13.969,5.043 14.101,5.175 14.184,5.337C14.278,5.522 14.279,5.765 14.279,6.249L14.279,12.265C14.279,12.385 14.279,12.447 14.264,12.503C14.25,12.552 14.227,12.599 14.197,12.64C14.146,12.701 14.088,12.756 14.023,12.802L13.328,13.366C13.215,13.458 13.158,13.504 13.137,13.56C13.119,13.608 13.119,13.662 13.137,13.71C13.157,13.765 13.215,13.811 13.328,13.903L14.023,14.468C14.117,14.544 14.163,14.583 14.197,14.63C14.227,14.672 14.25,14.717 14.264,14.767C14.279,14.845 14.284,14.925 14.279,15.005L14.279,17.751C14.279,18.235 14.278,18.478 14.184,18.663C14.101,18.825 13.969,18.957 13.807,19.04C13.622,19.134 13.377,19.136 12.893,19.136L11.105,19.136C10.621,19.136 10.379,19.134 10.193,19.04C10.031,18.957 9.899,18.825 9.816,18.663C9.722,18.478 9.721,18.235 9.721,17.751L9.721,11.735C9.721,11.615 9.721,11.553 9.736,11.497C9.75,11.447 9.773,11.4 9.803,11.358C9.837,11.311 9.883,11.275 9.977,11.198L10.672,10.634C10.785,10.542 10.842,10.496 10.863,10.44C10.881,10.392 10.881,10.338 10.863,10.29C10.843,10.235 10.785,10.189 10.672,10.097L9.977,9.532C9.912,9.486 9.854,9.431 9.803,9.37C9.773,9.328 9.75,9.281 9.736,9.231C9.721,9.153 9.716,9.074 9.721,8.995L9.721,6.25C9.721,5.766 9.722,5.523 9.816,5.338C9.899,5.176 10.031,5.044 10.193,4.961C10.379,4.867 10.621,4.865 11.105,4.865L11.105,4.864Z" style="fill:rgb(59,102,188);fill-rule:nonzero;"/>
    </g>
    <g transform="matrix(2.11111,0,0,2.11111,135,12.0001)">
        <g id="protonpass">
            <g>
                <path d="M10.826,4.548C13.337,2.036 14.592,0.781 16.04,0.31C17.314,-0.103 18.686,-0.103 19.96,0.31C21.408,0.781 22.663,2.036 25.174,4.548L31.452,10.826C33.964,13.337 35.219,14.592 35.69,16.04C36.103,17.314 36.103,18.686 35.69,19.96C35.219,21.408 33.964,22.663 31.452,25.174L25.174,31.452C22.663,33.964 21.408,35.219 19.96,35.69C18.686,36.103 17.314,36.103 16.04,35.69C14.592,35.219 13.337,33.964 10.826,31.452L9.645,30.129C8.931,29.328 8.574,28.928 8.319,28.473C8.093,28.069 7.928,27.634 7.827,27.182C7.714,26.673 7.714,26.137 7.714,25.064L7.714,10.936C7.714,9.863 7.714,9.327 7.827,8.818C7.928,8.366 8.093,7.931 8.319,7.527C8.574,7.072 8.931,6.672 9.645,5.871L10.826,4.548Z" style="fill:url(#_Radial1);fill-rule:nonzero;"/>
                <path d="M10.826,4.548C13.337,2.036 14.592,0.781 16.04,0.31C17.314,-0.103 18.686,-0.103 19.96,0.31C21.408,0.781 22.663,2.036 25.174,4.548L31.452,10.826C33.964,13.337 35.219,14.592 35.69,16.04C36.103,17.314 36.103,18.686 35.69,19.96C35.219,21.408 33.964,22.663 31.452,25.174L25.174,31.452C22.663,33.964 21.408,35.219 19.96,35.69C18.686,36.103 17.314,36.103 16.04,35.69C14.592,35.219 13.337,33.964 10.826,31.452L9.645,30.129C8.931,29.328 8.574,28.928 8.319,28.473C8.093,28.069 7.928,27.634 7.827,27.182C7.714,26.673 7.714,26.137 7.714,25.064L7.714,10.936C7.714,9.863 7.714,9.327 7.827,8.818C7.928,8.366 8.093,7.931 8.319,7.527C8.574,7.072 8.931,6.672 9.645,5.871L10.826,4.548Z" style="fill:url(#_Linear2);fill-rule:nonzero;"/>
                <path d="M10.377,4.996C11.633,3.74 12.261,3.112 12.985,2.877C13.621,2.67 14.307,2.67 14.944,2.877C15.668,3.112 16.296,3.74 17.552,4.996L26.968,14.412C28.224,15.668 28.852,16.296 29.087,17.02C29.294,17.657 29.294,18.343 29.087,18.979C28.852,19.703 28.224,20.331 26.968,21.587L17.552,31.003C16.296,32.259 15.668,32.887 14.944,33.122C14.307,33.329 13.621,33.329 12.985,33.122C12.261,32.887 11.633,32.259 10.377,31.003L4.548,25.174C2.036,22.663 0.781,21.407 0.31,19.959C-0.103,18.686 -0.103,17.314 0.31,16.04C0.781,14.592 2.036,13.336 4.548,10.825L10.377,4.996Z" style="fill:url(#_Radial3);fill-rule:nonzero;"/>
            </g>
        </g>
    </g>
    <g id="dash" transform="matrix(0.123355,0,0,0.125,381.48,13.5002)">
        <path d="M584,288.158L584,295.842C584,454.881 453.159,584 292,584C130.841,584 0,454.881 0,295.842L0,288.158C0,129.119 130.841,0 292,0C453.159,0 584,129.119 584,288.158Z" style="fill:rgb(9,54,63);"/>
        <path d="M308.2,372.022C308.2,369.688 305.866,367.354 302.589,366.418L263.319,351.942C256.736,349.136 249.291,352.406 249.291,357.089L249.291,462.129C249.291,464.47 251.625,467.276 253.96,468.211L294.172,482.687C300.255,485.022 308.2,481.752 308.2,476.605L308.2,372.022Z" style="fill:white;fill-rule:nonzero;"/>
        <path d="M381.836,342.568C381.836,340.233 379.501,337.899 376.225,336.964L336.955,322.487C330.371,319.682 322.927,322.951 322.927,327.635L322.927,432.674C322.927,435.016 325.261,437.821 327.595,438.757L367.808,453.233C373.89,455.567 381.836,452.298 381.836,447.151L381.836,342.568Z" style="fill:white;fill-rule:nonzero;"/>
        <path d="M308.2,121.664C308.2,119.33 305.866,116.996 302.589,116.06L263.319,101.584C256.736,98.778 249.291,102.048 249.291,106.731L249.291,211.771C249.291,214.112 251.625,216.918 253.96,217.853L294.172,232.33C300.255,234.664 308.2,231.394 308.2,226.247L308.2,121.664Z" style="fill:white;fill-rule:nonzero;"/>
        <path d="M381.836,165.845C381.836,163.511 379.501,161.176 376.225,160.241L336.955,145.765C330.371,142.959 322.927,146.229 322.927,150.912L322.927,255.952C322.927,258.293 325.261,261.099 327.595,262.034L367.808,276.51C373.89,278.845 381.836,275.575 381.836,270.428L381.836,165.845Z" style="fill:white;fill-rule:nonzero;"/>
        <path d="M455.472,224.753C455.472,222.418 453.138,220.084 449.861,219.149L410.591,204.672C404.008,201.867 396.564,205.136 396.564,209.819L396.564,373.767C396.564,376.109 398.898,378.914 401.232,379.849L441.445,394.326C447.527,396.66 455.472,393.391 455.472,388.244L455.472,224.753Z" style="fill:white;fill-rule:nonzero;"/>
        <path d="M234.563,121.671C234.563,119.337 232.229,116.996 228.952,116.06L189.682,101.584C183.136,98.778 175.654,102.048 175.654,106.731L175.654,462.136C175.654,464.47 177.989,467.276 180.33,468.211L220.536,482.687C226.618,485.021 234.563,481.752 234.563,476.605L234.563,121.671Z" style="fill:white;fill-rule:nonzero;"/>
    </g>
    <defs>
        <radialGradient id="_Radial1" cx="0" cy="0" r="1" gradientUnits="userSpaceOnUse" gradientTransform="matrix(15.8615,-25.5243,39.9147,24.8041,10.8648,36.7016)"><stop offset="0" style="stop-color:rgb(255,213,128);stop-opacity:1"/><stop offset="0.09" style="stop-color:rgb(246,197,146);stop-opacity:1"/><stop offset="0.21" style="stop-color:rgb(235,182,162);stop-opacity:1"/><stop offset="0.32" style="stop-color:rgb(223,165,175);stop-opacity:1"/><stop offset="0.43" style="stop-color:rgb(211,151,190);stop-opacity:1"/><stop offset="0.53" style="stop-color:rgb(196,134,203);stop-opacity:1"/><stop offset="0.65" style="stop-color:rgb(181,120,217);stop-opacity:1"/><stop offset="0.77" style="stop-color:rgb(161,102,229);stop-opacity:1"/><stop offset="0.89" style="stop-color:rgb(139,87,242);stop-opacity:1"/><stop offset="1" style="stop-color:rgb(112,76,255);stop-opacity:1"/></radialGradient>
        <linearGradient id="_Linear2" x1="0" y1="0" x2="1" y2="0" gradientUnits="userSpaceOnUse" gradientTransform="matrix(7.00098,42.7349,-42.7349,7.00098,9.62492,-7.14818)"><stop offset="0" style="stop-color:rgb(109,74,255);stop-opacity:1"/><stop offset="0.39" style="stop-color:rgb(179,159,251);stop-opacity:0.98"/><stop offset="1" style="stop-color:rgb(255,232,219);stop-opacity:0.8"/></linearGradient>
        <radialGradient id="_Radial3" cx="0" cy="0" r="1" gradientUnits="userSpaceOnUse" gradientTransform="matrix(12.7582,-20.5304,32.1053,19.9512,8.22507,33.0422)"><stop offset="0" style="stop-color:rgb(255,213,128);stop-opacity:1"/><stop offset="0.09" style="stop-color:rgb(246,197,146);stop-opacity:1"/><stop offset="0.21" style="stop-color:rgb(235,182,162);stop-opacity:1"/><stop offset="0.32" style="stop-color:rgb(223,165,175);stop-opacity:1"/><stop offset="0.43" style="stop-color:rgb(211,151,190);stop-opacity:1"/><stop offset="0.53" style="stop-color:rgb(196,134,203);stop-opacity:1"/><stop offset="0.65" style="stop-color:rgb(181,120,217);stop-opacity:1"/><stop offset="0.77" style="stop-color:rgb(161,102,229);stop-opacity:1"/><stop offset="0.89" style="stop-color:rgb(139,87,242);stop-opacity:1"/><stop offset="1" style="stop-color:rgb(112,76,255);stop-opacity:1"/></radialGradient>
    </defs>
</svg>
